<mxfile host="65bd71144e">
    <diagram id="IKoPhro0632xx9iPFfSu" name="OLED">
        <mxGraphModel dx="260" dy="179" grid="1" gridSize="5" guides="1" tooltips="1" connect="1" arrows="1" fold="1" page="1" pageScale="1" pageWidth="850" pageHeight="1100" math="0" shadow="0">
            <root>
                <mxCell id="0"/>
                <mxCell id="1" parent="0"/>
                <mxCell id="2" value="" style="rounded=0;whiteSpace=wrap;html=1;fillColor=#000000;strokeColor=#FFFFFF;" parent="1" vertex="1">
                    <mxGeometry x="425" y="502" width="128" height="96" as="geometry"/>
                </mxCell>
                <mxCell id="3" value="Graph" style="rounded=0;whiteSpace=wrap;html=1;fillColor=#0050ef;fontColor=#ffffff;strokeColor=#001DBC;opacity=40;imageWidth=24;imageHeight=24;" parent="1" vertex="1">
                    <mxGeometry x="426.5" y="528" width="125" height="45" as="geometry"/>
                </mxCell>
                <mxCell id="4" value="&lt;p style=&quot;line-height: 30%;&quot;&gt;&lt;font color=&quot;#ffffff&quot; style=&quot;font-size: 8px;&quot;&gt;Notifications&lt;/font&gt;&lt;/p&gt;" style="rounded=0;whiteSpace=wrap;html=1;opacity=40;fillColor=#000000;strokeColor=#FFFFFF;" parent="1" vertex="1">
                    <mxGeometry x="429" y="580" width="120" height="10" as="geometry"/>
                </mxCell>
                <mxCell id="5" value="&lt;font color=&quot;#ffffff&quot;&gt;Heart Rate: --- bpm&lt;/font&gt;" style="rounded=0;whiteSpace=wrap;html=1;fontSize=8;opacity=40;fillColor=#000000;strokeColor=#FFFFFF;" parent="1" vertex="1">
                    <mxGeometry x="426.5" y="505" width="83.5" height="18" as="geometry"/>
                </mxCell>
                <mxCell id="6" value="&lt;p style=&quot;line-height: 50%;&quot;&gt;&lt;font color=&quot;#ffffff&quot; style=&quot;font-size: 4px;&quot;&gt;Heart&lt;br&gt;icon&lt;/font&gt;&lt;br&gt;&lt;/p&gt;" style="rounded=0;whiteSpace=wrap;html=1;fontSize=8;opacity=40;fillColor=#000000;strokeColor=#FFFFFF;" parent="1" vertex="1">
                    <mxGeometry x="531.5" y="505" width="20" height="18" as="geometry"/>
                </mxCell>
                <mxCell id="7" value="" style="endArrow=classic;startArrow=classic;html=1;" edge="1" parent="1">
                    <mxGeometry width="50" height="50" relative="1" as="geometry">
                        <mxPoint x="560" y="600" as="sourcePoint"/>
                        <mxPoint x="560" y="502" as="targetPoint"/>
                    </mxGeometry>
                </mxCell>
                <mxCell id="13" value="64" style="edgeLabel;html=1;align=center;verticalAlign=middle;resizable=0;points=[];fontSize=5;fontColor=#FFFFFF;labelBackgroundColor=#000000;" vertex="1" connectable="0" parent="7">
                    <mxGeometry x="-0.0463" relative="1" as="geometry">
                        <mxPoint as="offset"/>
                    </mxGeometry>
                </mxCell>
                <mxCell id="9" value="" style="endArrow=classic;startArrow=classic;html=1;fontSize=5;" edge="1" parent="1">
                    <mxGeometry width="50" height="50" relative="1" as="geometry">
                        <mxPoint x="425" y="495" as="sourcePoint"/>
                        <mxPoint x="553" y="495" as="targetPoint"/>
                    </mxGeometry>
                </mxCell>
                <mxCell id="10" value="128" style="edgeLabel;html=1;align=center;verticalAlign=middle;resizable=0;points=[];fontSize=5;fontColor=#FFFFFF;labelBackgroundColor=#000000;" vertex="1" connectable="0" parent="9">
                    <mxGeometry x="-0.0509" y="1" relative="1" as="geometry">
                        <mxPoint x="3" as="offset"/>
                    </mxGeometry>
                </mxCell>
                <mxCell id="11" value="" style="endArrow=classic;startArrow=classic;html=1;fontSize=5;arcSize=20;" edge="1" parent="1">
                    <mxGeometry width="50" height="50" relative="1" as="geometry">
                        <mxPoint x="420" y="573" as="sourcePoint"/>
                        <mxPoint x="420" y="528" as="targetPoint"/>
                    </mxGeometry>
                </mxCell>
                <mxCell id="12" value="45" style="edgeLabel;html=1;align=center;verticalAlign=middle;resizable=0;points=[];fontSize=5;fontColor=#FFFFFF;labelBackgroundColor=#000000;" vertex="1" connectable="0" parent="11">
                    <mxGeometry x="-0.1455" y="-1" relative="1" as="geometry">
                        <mxPoint x="-1" y="-4" as="offset"/>
                    </mxGeometry>
                </mxCell>
            </root>
        </mxGraphModel>
    </diagram>
    <diagram id="Yfab8qHF7EpSdcHT0URQ" name="App">
        <mxGraphModel dx="538" dy="371" grid="1" gridSize="10" guides="1" tooltips="1" connect="1" arrows="1" fold="1" page="1" pageScale="1" pageWidth="850" pageHeight="1100" math="0" shadow="0">
            <root>
                <mxCell id="0"/>
                <mxCell id="1" parent="0"/>
                <mxCell id="KxarDFGGs3me0MCU-3dp-2" value="" style="rounded=0;whiteSpace=wrap;html=1;fontSize=4;fillColor=#000000;" vertex="1" parent="1">
                    <mxGeometry x="320" y="360" width="400" height="240" as="geometry"/>
                </mxCell>
                <mxCell id="KxarDFGGs3me0MCU-3dp-3" value="" style="rounded=0;whiteSpace=wrap;html=1;fontSize=4;fillColor=#000000;" vertex="1" parent="1">
                    <mxGeometry x="460" y="450" width="120" height="60" as="geometry"/>
                </mxCell>
            </root>
        </mxGraphModel>
    </diagram>
</mxfile>